<svg width="74" height="58" viewBox="0 0 74 58" fill="none" xmlns="http://www.w3.org/2000/svg">
<rect x="0.5" y="0.5" width="73" height="57" rx="4.5" fill="white" stroke="black"/>
<path d="M33.875 17.125V17.75H40.125V17.125C40.125 16.2962 39.7958 15.5013 39.2097 14.9153C38.6237 14.3292 37.8288 14 37 14C36.1712 14 35.3763 14.3292 34.7903 14.9153C34.2042 15.5013 33.875 16.2962 33.875 17.125ZM31.375 17.75V17.125C31.375 15.6332 31.9676 14.2024 33.0225 13.1475C34.0774 12.0926 35.5082 11.5 37 11.5C38.4918 11.5 39.9226 12.0926 40.9775 13.1475C42.0324 14.2024 42.625 15.6332 42.625 17.125V17.75H52C52.3315 17.75 52.6495 17.8817 52.8839 18.1161C53.1183 18.3505 53.25 18.6685 53.25 19C53.25 19.3315 53.1183 19.6495 52.8839 19.8839C52.6495 20.1183 52.3315 20.25 52 20.25H50.115L47.75 40.96C47.5756 42.4852 46.846 43.8929 45.7002 44.9147C44.5544 45.9364 43.0727 46.5007 41.5375 46.5H32.4625C30.9273 46.5007 29.4456 45.9364 28.2998 44.9147C27.154 43.8929 26.4244 42.4852 26.25 40.96L23.885 20.25H22C21.6685 20.25 21.3505 20.1183 21.1161 19.8839C20.8817 19.6495 20.75 19.3315 20.75 19C20.75 18.6685 20.8817 18.3505 21.1161 18.1161C21.3505 17.8817 21.6685 17.75 22 17.75H31.375ZM28.735 40.675C28.8394 41.5899 29.2767 42.4344 29.9637 43.0476C30.6506 43.6608 31.5392 43.9998 32.46 44H41.5387C42.4596 43.9998 43.3481 43.6608 44.0351 43.0476C44.7221 42.4344 45.1594 41.5899 45.2638 40.675L47.6 20.25H26.4012L28.735 40.675ZM33.25 24.625C33.5815 24.625 33.8995 24.7567 34.1339 24.9911C34.3683 25.2255 34.5 25.5435 34.5 25.875V38.375C34.5 38.7065 34.3683 39.0245 34.1339 39.2589C33.8995 39.4933 33.5815 39.625 33.25 39.625C32.9185 39.625 32.6005 39.4933 32.3661 39.2589C32.1317 39.0245 32 38.7065 32 38.375V25.875C32 25.5435 32.1317 25.2255 32.3661 24.9911C32.6005 24.7567 32.9185 24.625 33.25 24.625ZM42 25.875C42 25.5435 41.8683 25.2255 41.6339 24.9911C41.3995 24.7567 41.0815 24.625 40.75 24.625C40.4185 24.625 40.1005 24.7567 39.8661 24.9911C39.6317 25.2255 39.5 25.5435 39.5 25.875V38.375C39.5 38.7065 39.6317 39.0245 39.8661 39.2589C40.1005 39.4933 40.4185 39.625 40.75 39.625C41.0815 39.625 41.3995 39.4933 41.6339 39.2589C41.8683 39.0245 42 38.7065 42 38.375V25.875Z" fill="black"/>
</svg>
