<svg width="74" height="58" viewBox="0 0 74 58" fill="none" xmlns="http://www.w3.org/2000/svg">
<rect x="0.5" y="0.5" width="73" height="57" rx="4.5" fill="white" stroke="black"/>
<path d="M51.6772 19.4188C52.4647 18.6313 52.8981 17.5854 52.8981 16.4729C52.8981 15.3604 52.4647 14.3146 51.6772 13.5271L48.3731 10.2229C47.5856 9.43542 46.5397 9.00208 45.4272 9.00208C44.3147 9.00208 43.2689 9.43542 42.4835 10.2208L20.3335 32.3021V41.5H29.5272L51.6772 19.4188ZM45.4272 13.1687L48.7335 16.4708L45.421 19.7708L42.1168 16.4688L45.4272 13.1687ZM24.5002 37.3333V34.0313L39.1668 19.4104L42.471 22.7146L27.8064 37.3333H24.5002ZM20.3335 45.6667H53.6668V49.8333H20.3335V45.6667Z" fill="black"/>
</svg>
