<svg width="23" height="20" viewBox="0 0 23 20" fill="none" xmlns="http://www.w3.org/2000/svg">
<path d="M22.4311 8.12475C22.5755 8.79419 22.6542 9.49411 22.6542 10.2245C22.6542 15.9376 18.2344 20 11.559 20C10.0409 20.0004 8.53763 19.742 7.13501 19.2396C5.7324 18.7372 4.45797 18.0006 3.38452 17.072C2.31108 16.1433 1.45966 15.0407 0.878934 13.8273C0.298204 12.6139 -0.000462316 11.3133 5.37149e-07 10C-0.000462316 8.68667 0.298204 7.38613 0.878934 6.17269C1.45966 4.95926 2.31108 3.8567 3.38452 2.92804C4.45797 1.99937 5.7324 1.26279 7.13501 0.76039C8.53763 0.257984 10.0409 -0.000399962 11.559 4.64701e-07C14.6801 4.64701e-07 17.288 0.993499 19.2889 2.60666L16.0304 5.42564V5.41853C14.8175 4.41893 13.2781 3.90593 11.559 3.90593C7.74514 3.90593 4.64521 6.69342 4.64521 9.99391C4.64521 13.2934 7.74514 16.087 11.559 16.087C15.0194 16.087 17.3749 14.3753 17.8587 12.0246H11.559V8.12475H22.4323H22.4311Z" fill="white"/>
</svg>
