<svg width="74" height="58" viewBox="0 0 74 58" fill="none" xmlns="http://www.w3.org/2000/svg">
<rect x="0.5" y="0.5" width="73" height="57" rx="4.5" fill="white" stroke="black"/>
<path d="M42.7501 8.8755C41.7556 8.8755 40.8017 9.32979 40.0985 10.1384C39.3952 10.9471 39.0002 12.0438 39.0002 13.1874C39.0002 14.331 39.3952 15.4277 40.0985 16.2364C40.8017 17.045 41.7556 17.4993 42.7501 17.4993C43.7446 17.4993 44.6985 17.045 45.4017 16.2364C46.105 15.4277 46.5 14.331 46.5 13.1874C46.5 12.0438 46.105 10.9471 45.4017 10.1384C44.6985 9.32979 43.7446 8.8755 42.7501 8.8755ZM36.5002 13.1874C36.5 11.5013 37.0155 9.86872 37.9564 8.57542C38.8972 7.28213 40.2037 6.41043 41.647 6.11283C43.0904 5.81523 44.5788 6.11069 45.8519 6.94751C47.1249 7.78434 48.1016 9.10923 48.6109 10.6904C49.1202 12.2716 49.1298 14.0083 48.638 15.5968C48.1462 17.1853 47.1843 18.5243 45.9206 19.3797C44.6568 20.235 43.1718 20.5522 41.7253 20.2757C40.2787 19.9992 38.9628 19.1467 38.0077 17.8672L21.213 26.836C21.5991 28.2429 21.5991 29.7524 21.213 31.1594L38.0077 40.1281C39.0173 38.778 40.4268 37.9069 41.9631 37.6837C43.4994 37.4605 45.0531 37.901 46.323 38.9199C47.5929 39.9388 48.4887 41.4635 48.8367 43.1985C49.1847 44.9336 48.9601 46.7554 48.2065 48.3109C47.4529 49.8664 46.2239 51.0448 44.7578 51.6178C43.2916 52.1907 41.6927 52.1174 40.2708 51.4121C38.849 50.7068 37.7055 49.4196 37.062 47.8001C36.4185 46.1805 36.3207 44.3439 36.7877 42.6463L19.993 33.6775C19.1616 34.7916 18.0534 35.5862 16.8175 35.9545C15.5816 36.3227 14.2772 36.2468 13.0799 35.7371C11.8826 35.2274 10.8498 34.3083 10.1204 33.1034C9.391 31.8986 9 30.4657 9 28.9977C9 27.5296 9.391 26.0968 10.1204 24.8919C10.8498 23.6871 11.8826 22.768 13.0799 22.2582C14.2772 21.7485 15.5816 21.6727 16.8175 22.0409C18.0534 22.4091 19.1616 23.2037 19.993 24.3178L36.7877 15.3491C36.5965 14.6496 36.4996 13.9206 36.5002 13.1874ZM15.2506 24.6858C14.256 24.6858 13.3022 25.1401 12.599 25.9487C11.8957 26.7573 11.5006 27.8541 11.5006 28.9977C11.5006 30.1413 11.8957 31.238 12.599 32.0466C13.3022 32.8553 14.256 33.3096 15.2506 33.3096C16.2451 33.3096 17.1989 32.8553 17.9022 32.0466C18.6054 31.238 19.0005 30.1413 19.0005 28.9977C19.0005 27.8541 18.6054 26.7573 17.9022 25.9487C17.1989 25.1401 16.2451 24.6858 15.2506 24.6858ZM42.7501 40.4961C41.7556 40.4961 40.8017 40.9504 40.0985 41.759C39.3952 42.5676 39.0002 43.6644 39.0002 44.808C39.0002 45.9515 39.3952 47.0483 40.0985 47.8569C40.8017 48.6656 41.7556 49.1199 42.7501 49.1199C43.7446 49.1199 44.6985 48.6656 45.4017 47.8569C46.105 47.0483 46.5 45.9515 46.5 44.808C46.5 43.6644 46.105 42.5676 45.4017 41.759C44.6985 40.9504 43.7446 40.4961 42.7501 40.4961Z" fill="black"/>
</svg>
